<?xml version="1.0" standalone="no"?><!DOCTYPE svg PUBLIC "-//W3C//DTD SVG 1.1//EN" "http://www.w3.org/Graphics/SVG/1.1/DTD/svg11.dtd"><svg t="1592203100537" class="icon" viewBox="0 0 1024 1024" version="1.1" xmlns="http://www.w3.org/2000/svg" p-id="5272" xmlns:xlink="http://www.w3.org/1999/xlink" width="200" height="200"><defs><style type="text/css"></style></defs><path d="M851.084789 98.358145l-65.592904 0c-17.451464 0-31.600719 14.149255-31.600719 31.600719s14.149255 31.600719 31.600719 31.600719l65.592904 0c16.108886 0 29.224602 13.115716 29.224602 29.224602l0 110.340037L174.773536 301.124222 174.773536 190.783161c0-16.108886 13.115716-29.224602 29.224602-29.224602L269.560342 161.558559c17.451464 0 31.600719-14.149255 31.600719-31.600719s-14.150278-31.599695-31.600719-31.599695l-65.562205 0c-50.964742 0-92.426039 41.460274-92.426039 92.426039l0 653.79954c0 50.949392 41.460274 92.409666 92.426039 92.409666L851.084789 936.99339c50.965765 0 92.426039-41.460274 92.426039-92.409666l0-653.800563C943.510828 139.818419 902.050554 98.358145 851.084789 98.358145zM851.084789 873.791953 203.998137 873.791953c-16.108886 0-29.224602-13.100366-29.224602-29.209252l0-480.258065 705.535855 0 0 480.258065C880.30939 860.691587 867.193675 873.791953 851.084789 873.791953z" p-id="5273" fill="#f4f4f5"></path><path d="M459.379549 161.558559l136.740314 0c17.451464 0 31.600719-14.149255 31.600719-31.600719s-14.149255-31.600719-31.600719-31.600719L459.379549 98.357122c-17.451464 0-31.600719 14.149255-31.600719 31.600719S441.928085 161.558559 459.379549 161.558559z" p-id="5274" fill="#f4f4f5"></path><path d="M364.591719 206.338439c17.453511 0 31.600719-17.10047 31.600719-38.188764L396.192438 91.769077c0-21.092387-14.147208-38.188764-31.600719-38.188764-17.449417 0-31.600719 17.096377-31.600719 38.188764l0 76.380598C332.991 189.237969 347.142302 206.338439 364.591719 206.338439z" p-id="5275" fill="#f4f4f5"></path><path d="M690.922019 206.338439c17.449417 0 31.600719-17.10047 31.600719-38.188764L722.522738 91.769077c0-21.092387-14.151301-38.188764-31.600719-38.188764s-31.600719 17.096377-31.600719 38.188764l0 76.380598C659.3213 189.237969 673.472602 206.338439 690.922019 206.338439z" p-id="5276" fill="#f4f4f5"></path><path d="M748.753145 486.082724 306.34513 486.082724c-17.453511 0-31.600719 14.147208-31.600719 31.600719 0 17.449417 14.147208 31.600719 31.600719 31.600719l442.408015 0c17.451464 0 31.600719-14.151301 31.600719-31.600719C780.353864 500.229932 766.204609 486.082724 748.753145 486.082724z" p-id="5277" fill="#f4f4f5"></path><path d="M748.753145 677.660994 306.34513 677.660994c-17.453511 0-31.600719 14.147208-31.600719 31.600719 0 17.449417 14.147208 31.600719 31.600719 31.600719l442.408015 0c17.451464 0 31.600719-14.151301 31.600719-31.600719C780.353864 691.808202 766.204609 677.660994 748.753145 677.660994z" p-id="5278" fill="#f4f4f5"></path></svg>